<?xml version="1.0" encoding="UTF-8"?>
<svg id="a" xmlns="http://www.w3.org/2000/svg" width="471.5" height="36.2999992" version="1.1" viewBox="0 0 471.5 36.2999992">
  <!-- Generator: Adobe Illustrator 29.1.0, SVG Export Plug-In . SVG Version: 2.1.0 Build 142)  -->
  <g id="b">
    <path d="M350.4807906,2.6263948h-26.4686388l.0015975-.0024759c-2.0999756,0-5.213792,1.9000001-5.213792,5.5999999,0,20.3000011.3014154,25.8484667-4.5985785,25.8484667s-3.1014032-5.3484648-11.8014154-27.7484649c-.9000244-2.2999997-1.8210631-3.5524559-2.8210631-3.5524559-4.7999878,0-3.1789369,5.5124554-3.1789369,25.1124558,0,8.319994-10.6000061,8.319994-10.6000061-.4200001,0-6.8000011-.5-5.9400005-6.5-5.9400005s-6.7999878.1999989-6.7999878-3.2000008,4.8999939-2.7999992,7.3999939-2.7999992c6.8999939,0,7.2999878-12.7000003,1.1000061-12.7000003s-13.6999817-1.0999999-13.7999878,5.5999999c-.1000061,8.2999992,0,16.2999992,0,16.2999992,0,3.7999992,1.2000122,9-6.3999939,9h0c-1.9000244,0-11.9000092,1.2999992-17.2000122-4-7.0999908-6.7999992-5.6999969-28.4999993,15.1000061-25.7999992,1.7999878.3000002,1.5,0,0,0-22.2999878-2.3000011-20.9999847,19.8999996-15.0999908,25.7999992.8999939.8999996-4.232509,4.6260115-7.3325151,4.2260099-3.1999969-.4000015-1.9674879-6.5260111-2.6674849-7.7260118-.6999969-1.1000004-1.0999908-1.8999996-3.8999939-1.8999996-11.7000122,1.8999996-10.7000122-4.5-9.1000061-5.2000008,2.1000061-.8999996,11.8000031,1.6000004,7.8000031-6.7999992-2.3999939-5.9000001-5.8911197-15.3059679-9.3999939-6.5-2.3999939,6.5-6.8999939,20.2999992-8.5,24.7999992-1.6681175,3.3559409-7.0999908,3.2000008-12.3999939,3.2000008h-22.8596108" style="fill: none; stroke: #000; stroke-miterlimit: 10; stroke-width: 4.5px;"/>
  </g>
  <path d="M385.7807784,3l-1.2000122.9000001c-.2000122,0-.3999939.1999998-.6000061,0s-.6000061-.2-.7999878-.2c-.2999878,0-.5.7-.5.7h-.5V1h.5s.2000122.6.5.6.7000122-.1,1-.2h.3999939l1.2999878,1.0000001c.2000122,0,.2000122.4000001,0,.5h-.1000061l.0000305.0999999Z"/>
  <rect x="369.3807845" y="1" width="12" height="3.4000001"/>
  <polyline points="350.4807906 0 369.0807967 0 369.0807967 5.4000001 350.4807906 5.4000001"/>
</svg>