<?xml version="1.0" encoding="UTF-8"?>
<svg id="a" xmlns="http://www.w3.org/2000/svg" version="1.1" viewBox="0 0 471.5 36.3">
  <!-- Generator: Adobe Illustrator 29.1.0, SVG Export Plug-In . SVG Version: 2.1.0 Build 142)  -->
  <defs>
    <style>
      .st0 {
        fill: none;
        stroke: #000;
        stroke-miterlimit: 10;
        stroke-width: 4.5px;
      }
    </style>
  </defs>
  <g id="b">
    <path class="st0" d="M0,33.9h198.1c5.3,0,10.6,1.1,12.4-3.2,1.6-4.5,6.1-18.3,8.5-24.8,3-7.7,7,.6,9.4,6.5,4,8.4-5.7,5.9-7.8,6.8-1.6.7-2.6,7.1,9.1,5.2,2.8,0,3.2.8,3.9,1.9.7,1.2.8,6.6,4,7,3.1.4,6.9-2.6,6-3.5-5.9-5.9-7.2-28.1,15.1-25.8,1.5,0,1.8.3,0,0-20.8-2.7-22.2,19-15.1,25.8,5.3,5.3,15.3,4,17.2,4h0c7.6,0,6.4-5.2,6.4-9,0,0-.1-8,0-16.3,0-6.7,7.6-5.6,13.8-5.6s5.8,12.7-1.1,12.7-7.4-.6-7.4,2.8.8,3.2,6.8,3.2,6.5-.9,6.5,5.9,10.6,8.1,10.6.4c0-19.6-2-25.2,2.8-25.2s2.3,1.3,3.2,3.6c8.7,22.4,6.9,26.9,11.8,26.9s4.6-4.7,4.6-25,6.2-5.6,8.3-5.6h107.9"/>
  </g>
  <path d="M471.3,3l-1.2.9c-.2,0-.4.2-.6,0s-.6-.2-.8-.2c-.3,0-.5.7-.5.7h-.5V1h.5s.2.6.5.6.7-.1,1-.2h.4l1.3,1c.2,0,.2.4,0,.5h-.1q0,0,0,0Z"/>
  <rect x="454.9" y="1" width="12" height="3.4"/>
  <polyline points="436 0 454.6 0 454.6 5.4 436 5.4"/>
</svg>