<?xml version="1.0" encoding="UTF-8"?>
<svg id="a" xmlns="http://www.w3.org/2000/svg" version="1.1" viewBox="0 0 436 36.3">
  <!-- Generator: Adobe Illustrator 29.1.0, SVG Export Plug-In . SVG Version: 2.1.0 Build 142)  -->
  <defs>
    <style>
      .st0 {
        fill: none;
        stroke: #000;
        stroke-miterlimit: 10;
        stroke-width: 4.5px;
      }
    </style>
  </defs>
  <g id="b">
    <path class="st0" d="M302.4,6.4"/>
    <path class="st0" d="M296.4,28"/>
    <path class="st0" d="M483.7,2.6h-198.1,0c-2.1,0-5.2,1.9-5.2,5.6,0,20.3.3,25.8-4.6,25.8s-3.1-5.3-11.8-27.7c-.9-2.3-1.8-3.6-2.8-3.6-4.8,0-3.2,5.5-3.2,25.1s-10.6,8.3-10.6-.4-.5-5.9-6.5-5.9-6.8.2-6.8-3.2,4.9-2.8,7.4-2.8c6.9,0,7.3-12.7,1.1-12.7s-13.7-1.1-13.8,5.6c-.1,8.3,0,16.3,0,16.3,0,3.8,1.2,9-6.4,9h0c-1.9,0-11.9,1.3-17.2-4-7.1-6.8-5.7-28.5,15.1-25.8,1.8.3,1.5,0,0,0-22.3-2.3-21,19.9-15.1,25.8.9.9-4.2,4.6-7.3,4.2-3.2-.4-2-6.5-2.7-7.7-.7-1.1-1.1-1.9-3.9-1.9-11.7,1.9-10.7-4.5-9.1-5.2,2.1-.9,11.8,1.6,7.8-6.8-2.4-5.9-5.9-15.3-9.4-6.5-2.4,6.5-6.9,20.3-8.5,24.8-1.7,3.4-7.1,3.2-12.4,3.2H-38.4"/>
  </g>
</svg>