<?xml version="1.0" encoding="UTF-8"?>
<svg id="a" xmlns="http://www.w3.org/2000/svg" viewBox="0 0 263 35.83">
  <g id="b">
    <path d="M0,33.45h26.1c5.3,0,10.6,1.1,12.4-3.2,1.6-4.5,6.1-18.3,8.5-24.8,3-7.7,7,.6,9.4,6.5,4,8.4-5.7,5.9-7.8,6.8-1.6.7-2.6,7.1,9.1,5.2,2.8,0,3.2.8,3.9,1.9.7,1.2.81,6.65,4.01,7.05,3.1.4,6.89-2.65,5.99-3.55-5.9-5.9-7.2-28.1,15.1-25.8,1.5,0,1.8.3,0,0-20.8-2.7-22.2,19-15.1,25.8,5.3,5.3,15.3,4,17.2,4h0c7.6,0,6.4-5.2,6.4-9,0,0-.1-8,0-16.3.1-6.7,7.6-5.6,13.8-5.6s5.8,12.7-1.1,12.7c-2.5,0-7.4-.6-7.4,2.8s.8,3.2,6.8,3.2,6.5-.86,6.5,5.94c0,7.3,10.6,8.06,10.6.42,0-19.6-2-25.16,2.8-25.16,1,0,2.3,1.3,3.2,3.6,8.7,22.4,6.9,26.94,11.8,26.94s4.6-4.74,4.6-25.04c0-3.7,6.2-5.6,8.3-5.6h107.9" style="fill: none; stroke: #000; stroke-miterlimit: 10; stroke-width: 4.5px;"/>
  </g>
</svg>